<?xml version="1.0" encoding="utf-8"?>
<svg version="1.1" xmlns:xlink="http://www.w3.org/1999/xlink" width="22px" height="17px" xmlns="http://www.w3.org/2000/svg">
  <g transform="matrix(1 0 0 1 -990 -596 )">
    <path d="M 21.6025806451613 2.34680134680135  C 21.8675268817204 2.61391694725028  22 2.93827160493827  22 3.31986531986532  C 22 3.70145903479237  21.8675268817204 4.02581369248036  21.6025806451613 4.29292929292929  L 11.3264516129032 14.6531986531987  L 9.39612903225806 16.5993265993266  C 9.13118279569893 16.8664421997755  8.8094623655914 17  8.43096774193548 17  C 8.05247311827957 17  7.73075268817204 16.8664421997755  7.4658064516129 16.5993265993266  L 5.53548387096774 14.6531986531987  L 0.39741935483871 9.47306397306397  C 0.13247311827957 9.20594837261504  0 8.88159371492705  0 8.5  C 0 8.11840628507295  0.13247311827957 7.79405162738496  0.39741935483871 7.52693602693603  L 2.32774193548387 5.58080808080808  C 2.59268817204301 5.31369248035915  2.91440860215054 5.18013468013468  3.29290322580645 5.18013468013468  C 3.67139784946237 5.18013468013468  3.99311827956989 5.31369248035915  4.25806451612903 5.58080808080808  L 8.43096774193548 9.80218855218855  L 17.741935483871 0.400673400673401  C 18.0068817204301 0.133557800224466  18.3286021505376 0  18.7070967741935 0  C 19.0855913978495 0  19.407311827957 0.133557800224466  19.6722580645161 0.400673400673401  L 21.6025806451613 2.34680134680135  Z " fill-rule="nonzero" fill="#f2f2f2" stroke="none" transform="matrix(1 0 0 1 990 596 )" />
  </g>
</svg>