<?xml version="1.0" encoding="utf-8"?>
<svg version="1.1" xmlns:xlink="http://www.w3.org/1999/xlink" width="18px" height="27px" xmlns="http://www.w3.org/2000/svg">
  <g transform="matrix(1 0 0 1 -230 -310 )">
    <path d="M 12.2783203125 6.29296875  C 12.7177734375 6.73828125  12.9375 7.265625  12.9375 7.875  C 12.9375 8.02734375  12.8818359375 8.1591796875  12.7705078125 8.2705078125  C 12.6591796875 8.3818359375  12.52734375 8.4375  12.375 8.4375  C 12.22265625 8.4375  12.0908203125 8.3818359375  11.9794921875 8.2705078125  C 11.8681640625 8.1591796875  11.8125 8.02734375  11.8125 7.875  C 11.8125 7.3359375  11.49609375 6.919921875  10.86328125 6.626953125  C 10.23046875 6.333984375  9.609375 6.1875  9 6.1875  C 8.84765625 6.1875  8.7158203125 6.1318359375  8.6044921875 6.0205078125  C 8.4931640625 5.9091796875  8.4375 5.77734375  8.4375 5.625  C 8.4375 5.47265625  8.4931640625 5.3408203125  8.6044921875 5.2294921875  C 8.7158203125 5.1181640625  8.84765625 5.0625  9 5.0625  C 9.5859375 5.0625  10.1689453125 5.15625  10.7490234375 5.34375  C 11.3291015625 5.53125  11.8388671875 5.84765625  12.2783203125 6.29296875  Z M 14.5546875 11.0390625  C 15.3515625 10.11328125  15.75 9.05859375  15.75 7.875  C 15.75 7.03125  15.5478515625 6.24609375  15.1435546875 5.51953125  C 14.7392578125 4.79296875  14.2119140625 4.1982421875  13.5615234375 3.7353515625  C 12.9111328125 3.2724609375  12.1904296875 2.9091796875  11.3994140625 2.6455078125  C 10.6083984375 2.3818359375  9.80859375 2.25  9 2.25  C 8.19140625 2.25  7.3916015625 2.3818359375  6.6005859375 2.6455078125  C 5.8095703125 2.9091796875  5.0888671875 3.2724609375  4.4384765625 3.7353515625  C 3.7880859375 4.1982421875  3.2607421875 4.79296875  2.8564453125 5.51953125  C 2.4521484375 6.24609375  2.25 7.03125  2.25 7.875  C 2.25 9.05859375  2.6484375 10.11328125  3.4453125 11.0390625  C 3.5625 11.16796875  3.7412109375 11.361328125  3.9814453125 11.619140625  C 4.2216796875 11.876953125  4.400390625 12.0703125  4.517578125 12.19921875  C 6.017578125 13.9921875  6.84375 15.73828125  6.99609375 17.4375  L 11.00390625 17.4375  C 11.15625 15.73828125  11.982421875 13.9921875  13.482421875 12.19921875  C 13.599609375 12.0703125  13.7783203125 11.876953125  14.0185546875 11.619140625  C 14.2587890625 11.361328125  14.4375 11.16796875  14.5546875 11.0390625  Z M 17.2177734375 4.6318359375  C 17.7392578125 5.6337890625  18 6.71484375  18 7.875  C 18 9.69140625  17.396484375 11.26171875  16.189453125 12.5859375  C 15.662109375 13.16015625  15.2255859375 13.669921875  14.8798828125 14.115234375  C 14.5341796875 14.560546875  14.185546875 15.1201171875  13.833984375 15.7939453125  C 13.482421875 16.4677734375  13.283203125 17.09765625  13.236328125 17.68359375  C 13.787109375 18.01171875  14.0625 18.4921875  14.0625 19.125  C 14.0625 19.55859375  13.916015625 19.93359375  13.623046875 20.25  C 13.916015625 20.56640625  14.0625 20.94140625  14.0625 21.375  C 14.0625 21.984375  13.798828125 22.458984375  13.271484375 22.798828125  C 13.423828125 23.068359375  13.5 23.34375  13.5 23.625  C 13.5 24.1640625  13.3154296875 24.580078125  12.9462890625 24.873046875  C 12.5771484375 25.166015625  12.123046875 25.3125  11.583984375 25.3125  C 11.349609375 25.828125  10.998046875 26.23828125  10.529296875 26.54296875  C 10.060546875 26.84765625  9.55078125 27  9 27  C 8.44921875 27  7.939453125 26.84765625  7.470703125 26.54296875  C 7.001953125 26.23828125  6.650390625 25.828125  6.416015625 25.3125  C 5.876953125 25.3125  5.4228515625 25.166015625  5.0537109375 24.873046875  C 4.6845703125 24.580078125  4.5 24.1640625  4.5 23.625  C 4.5 23.34375  4.576171875 23.068359375  4.728515625 22.798828125  C 4.201171875 22.458984375  3.9375 21.984375  3.9375 21.375  C 3.9375 20.94140625  4.083984375 20.56640625  4.376953125 20.25  C 4.083984375 19.93359375  3.9375 19.55859375  3.9375 19.125  C 3.9375 18.4921875  4.212890625 18.01171875  4.763671875 17.68359375  C 4.716796875 17.09765625  4.517578125 16.4677734375  4.166015625 15.7939453125  C 3.814453125 15.1201171875  3.4658203125 14.560546875  3.1201171875 14.115234375  C 2.7744140625 13.669921875  2.337890625 13.16015625  1.810546875 12.5859375  C 0.603515625 11.26171875  0 9.69140625  0 7.875  C 0 6.71484375  0.2607421875 5.6337890625  0.7822265625 4.6318359375  C 1.3037109375 3.6298828125  1.9892578125 2.7978515625  2.8388671875 2.1357421875  C 3.6884765625 1.4736328125  4.6494140625 0.952148437499996  5.7216796875 0.571289062499999  C 6.7939453125 0.190429687499999  7.88671875 0  9 0  C 10.11328125 0  11.2060546875 0.190429687499999  12.2783203125 0.571289062499999  C 13.3505859375 0.952148437499996  14.3115234375 1.4736328125  15.1611328125 2.1357421875  C 16.0107421875 2.7978515625  16.6962890625 3.6298828125  17.2177734375 4.6318359375  Z " fill-rule="nonzero" fill="#009dd9" stroke="none" transform="matrix(1 0 0 1 230 310 )" />
  </g>
</svg>