<?xml version="1.0" encoding="utf-8"?>
<svg version="1.1" xmlns:xlink="http://www.w3.org/1999/xlink" width="25px" height="25px" xmlns="http://www.w3.org/2000/svg">
  <g transform="matrix(1 0 0 1 -228 -342 )">
    <path d="M 17.1223958333333 17.1223958333333  C 16.8185763888889 17.4262152777778  16.6666666666667 17.7951388888889  16.6666666666667 18.2291666666667  L 16.6666666666667 25  L 1.5625 25  C 1.12847222222222 25  0.759548611111111 24.8480902777778  0.455729166666667 24.5442708333333  C 0.151909722222222 24.2404513888889  0 23.8715277777778  0 23.4375  L 0 1.5625  C 0 1.12847222222222  0.151909722222222 0.759548611111108  0.455729166666667 0.455729166666666  C 0.759548611111111 0.151909722222221  1.12847222222222 0  1.5625 0  L 23.4375 0  C 23.8715277777778 0  24.2404513888889 0.151909722222221  24.5442708333333 0.455729166666666  C 24.8480902777778 0.759548611111108  25 1.12847222222222  25 1.5625  L 25 16.6666666666667  L 18.2291666666667 16.6666666666667  C 17.7951388888889 16.6666666666667  17.4262152777778 16.8185763888889  17.1223958333333 17.1223958333333  Z M 18.75 24.951171875  L 18.75 18.75  L 24.951171875 18.75  C 24.7884114583333 19.6397569444444  24.4357638888889 20.3559027777778  23.8932291666667 20.8984375  L 20.8984375 23.8932291666667  C 20.3559027777778 24.4357638888889  19.6397569444444 24.7884114583333  18.75 24.951171875  Z " fill-rule="nonzero" fill="#009dd9" stroke="none" transform="matrix(1 0 0 1 228 342 )" />
  </g>
</svg>