<?xml version="1.0" encoding="utf-8"?>
<svg version="1.1" xmlns:xlink="http://www.w3.org/1999/xlink" width="22px" height="13px" xmlns="http://www.w3.org/2000/svg">
  <g transform="matrix(1 0 0 1 -230 -381 )">
    <path d="M 2.44444444444444 2.6  L 18.3333333333333 2.6  L 18.3333333333333 10.4  L 2.44444444444444 10.4  L 2.44444444444444 2.6  Z M 19.5555555555556 11.375  L 19.5555555555556 8.45  L 20.7777777777778 8.45  L 20.7777777777778 4.55  L 19.5555555555556 4.55  L 19.5555555555556 1.625  C 19.5555555555556 1.53020833333333  19.5269097222222 1.45234375  19.4696180555556 1.39140625  C 19.4123263888889 1.33046875  19.3391203703704 1.3  19.25 1.3  L 1.52777777777778 1.3  C 1.43865740740741 1.3  1.36545138888889 1.33046875  1.30815972222222 1.39140625  C 1.25086805555556 1.45234375  1.22222222222222 1.53020833333333  1.22222222222222 1.625  L 1.22222222222222 11.375  C 1.22222222222222 11.4697916666667  1.25086805555556 11.54765625  1.30815972222222 11.60859375  C 1.36545138888889 11.66953125  1.43865740740741 11.7  1.52777777777778 11.7  L 19.25 11.7  C 19.3391203703704 11.7  19.4123263888889 11.66953125  19.4696180555556 11.60859375  C 19.5269097222222 11.54765625  19.5555555555556 11.4697916666667  19.5555555555556 11.375  Z M 21.6419270833333 3.630859375  C 21.8806423611111 3.884765625  22 4.19114583333333  22 4.55  L 22 8.45  C 22 8.80885416666666  21.8806423611111 9.115234375  21.6419270833333 9.369140625  C 21.4032118055556 9.623046875  21.115162037037 9.75  20.7777777777778 9.75  L 20.7777777777778 11.375  C 20.7777777777778 11.821875  20.6281828703704 12.2044270833333  20.3289930555556 12.52265625  C 20.0298032407407 12.8408854166667  19.6701388888889 13  19.25 13  L 1.52777777777778 13  C 1.10763888888889 13  0.747974537037037 12.8408854166667  0.448784722222222 12.52265625  C 0.149594907407407 12.2044270833333  0 11.821875  0 11.375  L 0 1.625  C 0 1.178125  0.149594907407407 0.795572916666666  0.448784722222222 0.47734375  C 0.747974537037037 0.159114583333332  1.10763888888889 0  1.52777777777778 0  L 19.25 0  C 19.6701388888889 0  20.0298032407407 0.159114583333332  20.3289930555556 0.47734375  C 20.6281828703704 0.795572916666666  20.7777777777778 1.178125  20.7777777777778 1.625  L 20.7777777777778 3.25  C 21.115162037037 3.25  21.4032118055556 3.376953125  21.6419270833333 3.630859375  Z " fill-rule="nonzero" fill="#009dd9" stroke="none" transform="matrix(1 0 0 1 230 381 )" />
  </g>
</svg>