<?xml version="1.0" encoding="utf-8"?>
<svg version="1.1" xmlns:xlink="http://www.w3.org/1999/xlink" width="19px" height="19px" xmlns="http://www.w3.org/2000/svg">
  <g transform="matrix(1 0 0 1 -232 -430 )">
    <path d="M 12.5553385416667 15.7220052083333  C 12.6295572916667 15.6477864583333  12.6666666666667 15.5529513888889  12.6666666666667 15.4375  L 12.6666666666667 13.4583333333333  C 12.6666666666667 13.3428819444444  12.6295572916667 13.248046875  12.5553385416667 13.173828125  C 12.4811197916667 13.099609375  12.3862847222222 13.0625  12.2708333333333 13.0625  L 11.0833333333333 13.0625  L 11.0833333333333 6.72916666666667  C 11.0833333333333 6.61371527777778  11.0462239583333 6.51888020833333  10.9720052083333 6.44466145833333  C 10.8977864583333 6.37044270833333  10.8029513888889 6.33333333333333  10.6875 6.33333333333333  L 6.72916666666667 6.33333333333333  C 6.61371527777778 6.33333333333333  6.51888020833333 6.37044270833333  6.44466145833333 6.44466145833333  C 6.37044270833333 6.51888020833333  6.33333333333333 6.61371527777778  6.33333333333333 6.72916666666667  L 6.33333333333333 8.70833333333333  C 6.33333333333333 8.82378472222222  6.37044270833333 8.91861979166667  6.44466145833333 8.99283854166667  C 6.51888020833333 9.06705729166667  6.61371527777778 9.10416666666667  6.72916666666667 9.10416666666667  L 7.91666666666667 9.10416666666667  L 7.91666666666667 13.0625  L 6.72916666666667 13.0625  C 6.61371527777778 13.0625  6.51888020833333 13.099609375  6.44466145833333 13.173828125  C 6.37044270833333 13.248046875  6.33333333333333 13.3428819444444  6.33333333333333 13.4583333333333  L 6.33333333333333 15.4375  C 6.33333333333333 15.5529513888889  6.37044270833333 15.6477864583333  6.44466145833333 15.7220052083333  C 6.51888020833333 15.7962239583333  6.61371527777778 15.8333333333333  6.72916666666667 15.8333333333333  L 12.2708333333333 15.8333333333333  C 12.3862847222222 15.8333333333333  12.4811197916667 15.7962239583333  12.5553385416667 15.7220052083333  Z M 10.9720052083333 4.638671875  C 11.0462239583333 4.564453125  11.0833333333333 4.46961805555555  11.0833333333333 4.35416666666667  L 11.0833333333333 2.375  C 11.0833333333333 2.25954861111111  11.0462239583333 2.16471354166667  10.9720052083333 2.09049479166667  C 10.8977864583333 2.01627604166667  10.8029513888889 1.97916666666667  10.6875 1.97916666666667  L 8.3125 1.97916666666667  C 8.19704861111111 1.97916666666667  8.10221354166667 2.01627604166667  8.02799479166667 2.09049479166667  C 7.95377604166667 2.16471354166667  7.91666666666667 2.25954861111111  7.91666666666667 2.375  L 7.91666666666667 4.35416666666667  C 7.91666666666667 4.46961805555555  7.95377604166667 4.564453125  8.02799479166667 4.638671875  C 8.10221354166667 4.712890625  8.19704861111111 4.75  8.3125 4.75  L 10.6875 4.75  C 10.8029513888889 4.75  10.8977864583333 4.712890625  10.9720052083333 4.638671875  Z M 17.7259114583333 4.7314453125  C 18.5753038194444 6.18695746527778  19 7.77647569444444  19 9.5  C 19 11.2235243055556  18.5753038194444 12.8130425347222  17.7259114583333 14.2685546875  C 16.8765190972222 15.7240668402778  15.7240668402778 16.8765190972222  14.2685546875 17.7259114583333  C 12.8130425347222 18.5753038194444  11.2235243055556 19  9.5 19  C 7.77647569444444 19  6.18695746527778 18.5753038194444  4.7314453125 17.7259114583333  C 3.27593315972222 16.8765190972222  2.12348090277778 15.7240668402778  1.27408854166667 14.2685546875  C 0.424696180555555 12.8130425347222  0 11.2235243055556  0 9.5  C 0 7.77647569444444  0.424696180555555 6.18695746527778  1.27408854166667 4.7314453125  C 2.12348090277778 3.27593315972222  3.27593315972222 2.12348090277778  4.7314453125 1.27408854166667  C 6.18695746527778 0.424696180555554  7.77647569444444 0  9.5 0  C 11.2235243055556 0  12.8130425347222 0.424696180555554  14.2685546875 1.27408854166667  C 15.7240668402778 2.12348090277778  16.8765190972222 3.27593315972222  17.7259114583333 4.7314453125  Z " fill-rule="nonzero" fill="#009dd9" stroke="none" transform="matrix(1 0 0 1 232 430 )" />
  </g>
</svg>