<?xml version="1.0" encoding="utf-8"?>
<svg version="1.1" xmlns:xlink="http://www.w3.org/1999/xlink" width="32px" height="23px" xmlns="http://www.w3.org/2000/svg">
  <g transform="matrix(1 0 0 1 -655 -314 )">
    <path d="M 30.6 12.8149857954545  C 31.5333333333333 13.9530066287879  32 15.2571022727273  32 16.7272727272727  C 32 18.4588068181818  31.375 19.9371448863636  30.125 21.1622869318182  C 28.875 22.3874289772727  27.3666666666667 23  25.6 23  L 7.46666666666667 23  C 5.41111111111111 23  3.65277777777778 22.2839725378788  2.19166666666667 20.8519176136364  C 0.730555555555556 19.4198626893939  0 17.6964962121212  0 15.6818181818182  C 0 14.2443181818182  0.394444444444444 12.9293323863636  1.18333333333333 11.7368607954545  C 1.97222222222222 10.5443892045455  3.01111111111111 9.65411931818182  4.3 9.06605113636364  C 4.27777777777778 8.76112689393939  4.26666666666667 8.52698863636364  4.26666666666667 8.36363636363636  C 4.26666666666667 6.05492424242424  5.1 4.08380681818182  6.76666666666667 2.45028409090909  C 8.43333333333333 0.816761363636364  10.4444444444444 0  12.8 0  C 14.5555555555556 0  16.1472222222222 0.479166666666665  17.575 1.4375  C 19.0027777777778 2.39583333333333  20.0444444444444 3.64820075757576  20.7 5.19460227272727  C 21.4777777777778 4.51941287878788  22.4 4.18181818181818  23.4666666666667 4.18181818181818  C 24.6444444444444 4.18181818181818  25.65 4.59019886363636  26.4833333333333 5.40696022727273  C 27.3166666666667 6.22372159090909  27.7333333333333 7.2092803030303  27.7333333333333 8.36363636363636  C 27.7333333333333 9.18039772727273  27.5055555555556 9.93181818181818  27.05 10.6178977272727  C 28.4833333333333 10.9446022727273  29.6666666666667 11.6769649621212  30.6 12.8149857954545  Z " fill-rule="nonzero" fill="#009dd9" stroke="none" transform="matrix(1 0 0 1 655 314 )" />
  </g>
</svg>