<?xml version="1.0" encoding="utf-8"?>
<svg version="1.1" xmlns:xlink="http://www.w3.org/1999/xlink" width="27px" height="27px" xmlns="http://www.w3.org/2000/svg">
  <g transform="matrix(1 0 0 1 -660 -379 )">
    <path d="M 18.4921875 18.4921875  C 18.1640625 18.8203125  18 19.21875  18 19.6875  L 18 27  L 1.6875 27  C 1.21875 27  0.8203125 26.8359375  0.4921875 26.5078125  C 0.1640625 26.1796875  0 25.78125  0 25.3125  L 0 1.6875  C 0 1.21875  0.1640625 0.820312499999996  0.4921875 0.492187499999999  C 0.8203125 0.164062499999999  1.21875 0  1.6875 0  L 25.3125 0  C 25.78125 0  26.1796875 0.164062499999999  26.5078125 0.492187499999999  C 26.8359375 0.820312499999996  27 1.21875  27 1.6875  L 27 18  L 19.6875 18  C 19.21875 18  18.8203125 18.1640625  18.4921875 18.4921875  Z M 20.25 26.947265625  L 20.25 20.25  L 26.947265625 20.25  C 26.771484375 21.2109375  26.390625 21.984375  25.8046875 22.5703125  L 22.5703125 25.8046875  C 21.984375 26.390625  21.2109375 26.771484375  20.25 26.947265625  Z " fill-rule="nonzero" fill="#009dd9" stroke="none" transform="matrix(1 0 0 1 660 379 )" />
  </g>
</svg>