<?xml version="1.0" encoding="utf-8"?>
<svg version="1.1" xmlns:xlink="http://www.w3.org/1999/xlink" width="23px" height="14px" xmlns="http://www.w3.org/2000/svg">
  <g transform="matrix(1 0 0 1 -662 -421 )">
    <path d="M 2.55555555555556 3  L 19.1666666666667 3  L 19.1666666666667 11  L 2.55555555555556 11  L 2.55555555555556 3  Z M 20.4444444444444 12.25  L 20.4444444444444 9.1  L 21.7222222222222 9.1  L 21.7222222222222 4.9  L 20.4444444444444 4.9  L 20.4444444444444 1.75  C 20.4444444444444 1.64791666666666  20.4144965277778 1.5640625  20.3546006944444 1.4984375  C 20.2947048611111 1.4328125  20.2181712962963 1.4  20.125 1.4  L 1.59722222222222 1.4  C 1.50405092592593 1.4  1.42751736111111 1.4328125  1.36762152777778 1.4984375  C 1.30772569444444 1.5640625  1.27777777777778 1.64791666666666  1.27777777777778 1.75  L 1.27777777777778 12.25  C 1.27777777777778 12.3520833333333  1.30772569444444 12.4359375  1.36762152777778 12.5015625  C 1.42751736111111 12.5671875  1.50405092592593 12.6  1.59722222222222 12.6  L 20.125 12.6  C 20.2181712962963 12.6  20.2947048611111 12.5671875  20.3546006944444 12.5015625  C 20.4144965277778 12.4359375  20.4444444444444 12.3520833333333  20.4444444444444 12.25  Z M 22.6256510416667 3.91015625  C 22.8752170138889 4.18359375  23 4.51354166666667  23 4.9  L 23 9.1  C 23 9.48645833333333  22.8752170138889 9.81640625  22.6256510416667 10.08984375  C 22.3760850694444 10.36328125  22.0749421296296 10.5  21.7222222222222 10.5  L 21.7222222222222 12.25  C 21.7222222222222 12.73125  21.5658275462963 13.1432291666667  21.2530381944444 13.4859375  C 20.9402488425926 13.8286458333333  20.5642361111111 14  20.125 14  L 1.59722222222222 14  C 1.15798611111111 14  0.78197337962963 13.8286458333333  0.469184027777778 13.4859375  C 0.156394675925926 13.1432291666667  0 12.73125  0 12.25  L 0 1.75  C 0 1.26875  0.156394675925926 0.856770833333333  0.469184027777778 0.5140625  C 0.78197337962963 0.171354166666665  1.15798611111111 0  1.59722222222222 0  L 20.125 0  C 20.5642361111111 0  20.9402488425926 0.171354166666665  21.2530381944444 0.5140625  C 21.5658275462963 0.856770833333333  21.7222222222222 1.26875  21.7222222222222 1.75  L 21.7222222222222 3.5  C 22.0749421296296 3.5  22.3760850694444 3.63671875  22.6256510416667 3.91015625  Z " fill-rule="nonzero" fill="#009dd9" stroke="none" transform="matrix(1 0 0 1 662 421 )" />
  </g>
</svg>