<?xml version="1.0" encoding="utf-8"?>
<svg version="1.1" xmlns:xlink="http://www.w3.org/1999/xlink" width="27px" height="27px" xmlns="http://www.w3.org/2000/svg">
  <g transform="matrix(1 0 0 1 -662 -500 )">
    <path d="M 20.126953125 16.4267578125  C 20.185546875 16.4794921875  20.21484375 16.546875  20.21484375 16.62890625  L 20.21484375 18.544921875  C 20.21484375 19.130859375  20.0009765625 19.65234375  19.5732421875 20.109375  C 19.1455078125 20.56640625  18.5947265625 20.9208984375  17.9208984375 21.1728515625  C 17.2470703125 21.4248046875  16.5556640625 21.615234375  15.8466796875 21.744140625  C 15.1376953125 21.873046875  14.44921875 21.9375  13.78125 21.9375  C 11.37890625 21.9375  9.3720703125 21.123046875  7.7607421875 19.494140625  C 6.1494140625 17.865234375  5.34375 15.837890625  5.34375 13.412109375  C 5.34375 11.033203125  6.140625 9.046875  7.734375 7.453125  C 9.328125 5.859375  11.314453125 5.0625  13.693359375 5.0625  C 14.091796875 5.0625  14.5341796875 5.0888671875  15.0205078125 5.1416015625  C 15.5068359375 5.1943359375  16.0517578125 5.2998046875  16.6552734375 5.4580078125  C 17.2587890625 5.6162109375  17.80078125 5.8154296875  18.28125 6.0556640625  C 18.76171875 6.2958984375  19.166015625 6.626953125  19.494140625 7.048828125  C 19.822265625 7.470703125  19.986328125 7.9453125  19.986328125 8.47265625  L 19.986328125 10.388671875  C 19.986328125 10.576171875  19.892578125 10.669921875  19.705078125 10.669921875  L 17.630859375 10.669921875  C 17.443359375 10.669921875  17.349609375 10.576171875  17.349609375 10.388671875  L 17.349609375 9.158203125  C 17.349609375 8.654296875  16.9658203125 8.2587890625  16.1982421875 7.9716796875  C 15.4306640625 7.6845703125  14.625 7.541015625  13.78125 7.541015625  C 12.140625 7.541015625  10.8017578125 8.0771484375  9.7646484375 9.1494140625  C 8.7275390625 10.2216796875  8.208984375 11.61328125  8.208984375 13.32421875  C 8.208984375 15.09375  8.7451171875 16.5556640625  9.8173828125 17.7099609375  C 10.8896484375 18.8642578125  12.2578125 19.44140625  13.921875 19.44140625  C 14.71875 19.44140625  15.52734375 19.30078125  16.34765625 19.01953125  C 17.16796875 18.73828125  17.578125 18.3515625  17.578125 17.859375  L 17.578125 16.62890625  C 17.578125 16.546875  17.6044921875 16.4794921875  17.6572265625 16.4267578125  C 17.7099609375 16.3740234375  17.771484375 16.34765625  17.841796875 16.34765625  L 19.93359375 16.34765625  C 20.00390625 16.34765625  20.068359375 16.3740234375  20.126953125 16.4267578125  Z M 17.8681640625 3.146484375  C 16.4794921875 2.548828125  15.0234375 2.25  13.5 2.25  C 11.9765625 2.25  10.5205078125 2.548828125  9.1318359375 3.146484375  C 7.7431640625 3.744140625  6.5478515625 4.5439453125  5.5458984375 5.5458984375  C 4.5439453125 6.5478515625  3.744140625 7.7431640625  3.146484375 9.1318359375  C 2.548828125 10.5205078125  2.25 11.9765625  2.25 13.5  C 2.25 15.0234375  2.548828125 16.4794921875  3.146484375 17.8681640625  C 3.744140625 19.2568359375  4.5439453125 20.4521484375  5.5458984375 21.4541015625  C 6.5478515625 22.4560546875  7.7431640625 23.255859375  9.1318359375 23.853515625  C 10.5205078125 24.451171875  11.9765625 24.75  13.5 24.75  C 15.0234375 24.75  16.4794921875 24.451171875  17.8681640625 23.853515625  C 19.2568359375 23.255859375  20.4521484375 22.4560546875  21.4541015625 21.4541015625  C 22.4560546875 20.4521484375  23.255859375 19.2568359375  23.853515625 17.8681640625  C 24.451171875 16.4794921875  24.75 15.0234375  24.75 13.5  C 24.75 11.9765625  24.451171875 10.5205078125  23.853515625 9.1318359375  C 23.255859375 7.7431640625  22.4560546875 6.5478515625  21.4541015625 5.5458984375  C 20.4521484375 4.5439453125  19.2568359375 3.744140625  17.8681640625 3.146484375  Z M 25.189453125 6.7236328125  C 26.396484375 8.7919921875  27 11.05078125  27 13.5  C 27 15.94921875  26.396484375 18.2080078125  25.189453125 20.2763671875  C 23.982421875 22.3447265625  22.3447265625 23.982421875  20.2763671875 25.189453125  C 18.2080078125 26.396484375  15.94921875 27  13.5 27  C 11.05078125 27  8.7919921875 26.396484375  6.7236328125 25.189453125  C 4.6552734375 23.982421875  3.017578125 22.3447265625  1.810546875 20.2763671875  C 0.603515625 18.2080078125  0 15.94921875  0 13.5  C 0 11.05078125  0.603515625 8.7919921875  1.810546875 6.7236328125  C 3.017578125 4.6552734375  4.6552734375 3.017578125  6.7236328125 1.810546875  C 8.7919921875 0.603515624999998  11.05078125 0  13.5 0  C 15.94921875 0  18.2080078125 0.603515624999998  20.2763671875 1.810546875  C 22.3447265625 3.017578125  23.982421875 4.6552734375  25.189453125 6.7236328125  Z " fill-rule="nonzero" fill="#009dd9" stroke="none" transform="matrix(1 0 0 1 662 500 )" />
  </g>
</svg>