<?xml version="1.0" encoding="utf-8"?>
<svg version="1.1" xmlns:xlink="http://www.w3.org/1999/xlink" width="56px" height="44px" xmlns="http://www.w3.org/2000/svg">
  <g transform="matrix(1 0 0 1 -2402 -348 )">
    <path d="M 53.55 24.515625  C 55.1833333333333 26.6927083333333  56 29.1875  56 32  C 56 35.3125  54.90625 38.140625  52.71875 40.484375  C 50.53125 42.828125  47.8916666666667 44  44.8 44  L 13.0666666666667 44  C 9.46944444444444 44  6.39236111111111 42.6302083333333  3.83541666666667 39.890625  C 1.27847222222222 37.1510416666667  0 33.8541666666667  0 30  C 0 27.25  0.690277777777778 24.734375  2.07083333333333 22.453125  C 3.45138888888889 20.171875  5.26944444444444 18.46875  7.525 17.34375  C 7.48611111111111 16.7604166666667  7.46666666666667 16.3125  7.46666666666667 16  C 7.46666666666667 11.5833333333333  8.925 7.8125  11.8416666666667 4.6875  C 14.7583333333333 1.5625  18.2777777777778 0  22.4 0  C 25.4722222222222 0  28.2576388888889 0.916666666666663  30.75625 2.75  C 33.2548611111111 4.58333333333333  35.0777777777778 6.97916666666666  36.225 9.9375  C 37.5861111111111 8.64583333333333  39.2 8  41.0666666666667 8  C 43.1277777777778 8  44.8875 8.78125  46.3458333333333 10.34375  C 47.8041666666667 11.90625  48.5333333333333 13.7916666666667  48.5333333333333 16  C 48.5333333333333 17.5625  48.1347222222222 19  47.3375 20.3125  C 49.8458333333333 20.9375  51.9166666666667 22.3385416666667  53.55 24.515625  Z " fill-rule="nonzero" fill="#36a9ce" stroke="none" transform="matrix(1 0 0 1 2402 348 )" />
  </g>
</svg>