<?xml version="1.0" encoding="utf-8"?>
<svg version="1.1" xmlns:xlink="http://www.w3.org/1999/xlink" width="27px" height="49px" xmlns="http://www.w3.org/2000/svg">
  <g transform="matrix(1 0 0 1 -1600 -344 )">
    <path d="M 26.5360824742268 2.94589178356713  C 26.8453608247423 3.27321309285237  27 3.64963259853039  27 4.0751503006012  C 27 4.50066800267201  26.8453608247423 4.87708750835003  26.5360824742268 5.20440881763527  L 8.30412371134021 24.5  L 26.5360824742268 43.7955911823647  C 26.8453608247423 44.12291249165  27 44.499331997328  27 44.9248496993988  C 27 45.3503674014696  26.8453608247423 45.7267869071476  26.5360824742268 46.0541082164329  L 24.2164948453608 48.5090180360721  C 23.9072164948454 48.8363393453574  23.5515463917526 49  23.1494845360825 49  C 22.7474226804124 49  22.3917525773196 48.8363393453574  22.0824742268041 48.5090180360721  L 0.463917525773196 25.6292585170341  C 0.154639175257732 25.3019372077488  0 24.9255177020708  0 24.5  C 0 24.0744822979292  0.154639175257732 23.6980627922512  0.463917525773196 23.3707414829659  L 22.0824742268041 0.490981963927856  C 22.3917525773196 0.163660654642617  22.7474226804124 0  23.1494845360825 0  C 23.5515463917526 0  23.9072164948454 0.163660654642617  24.2164948453608 0.490981963927856  L 26.5360824742268 2.94589178356713  Z " fill-rule="nonzero" fill="#36a9ce" stroke="none" transform="matrix(1 0 0 1 1600 344 )" />
  </g>
</svg>