<?xml version="1.0" encoding="utf-8"?>
<svg version="1.1" xmlns:xlink="http://www.w3.org/1999/xlink" width="146px" height="105px" xmlns="http://www.w3.org/2000/svg">
  <g transform="matrix(1 0 0 1 -613 -1665 )">
    <path d="M 144.537074148297 85.8762886597938  C 145.512358049432 87.0790378006873  146 88.4621993127148  146 90.0257731958763  C 146 91.5893470790378  145.512358049432 92.9725085910653  144.537074148297 94.1752577319588  L 137.22244488978 103.19587628866  C 136.247160988644 104.398625429553  135.125584502338 105  133.857715430862 105  C 132.589846359385 105  131.468269873079 104.398625429553  130.492985971944 103.19587628866  L 73 32.2938144329897  L 15.5070140280561 103.19587628866  C 14.5317301269205 104.398625429553  13.4101536406146 105  12.1422845691383 105  C 10.874415497662 105  9.75283901135605 104.398625429553  8.77755511022044 103.19587628866  L 1.46292585170341 94.1752577319588  C 0.487641950567804 92.9725085910653  0 91.5893470790378  0 90.0257731958763  C 0 88.4621993127148  0.487641950567804 87.0790378006873  1.46292585170341 85.8762886597938  L 69.6352705410822 1.80412371134021  C 70.6105544422178 0.601374570446722  71.7321309285237 0  73 0  C 74.2678690714763 0  75.3894455577822 0.601374570446722  76.3647294589178 1.80412371134021  L 144.537074148297 85.8762886597938  Z " fill-rule="nonzero" fill="#f2f2f2" stroke="none" transform="matrix(1 0 0 1 613 1665 )" />
  </g>
</svg>