<?xml version="1.0" encoding="utf-8"?>
<svg version="1.1" xmlns:xlink="http://www.w3.org/1999/xlink" width="12px" height="12px" viewBox="798 312.5  12 12" xmlns="http://www.w3.org/2000/svg">
  <path d="M 804 312.5  C 807.36 312.5  810 315.14  810 318.5  C 810 321.86  807.36 324.5  804 324.5  C 800.64 324.5  798 321.86  798 318.5  C 798 315.14  800.64 312.5  804 312.5  Z " fill-rule="nonzero" fill="#f0f0f0" stroke="none" />
  <path d="M 804 313  C 807.08 313  809.5 315.42  809.5 318.5  C 809.5 321.58  807.08 324  804 324  C 800.92 324  798.5 321.58  798.5 318.5  C 798.5 315.42  800.92 313  804 313  Z " stroke-width="1" stroke="#0099ff" fill="none" />
  <path d="M 804 321.5  C 802.32 321.5  801 320.18  801 318.5  C 801 316.82  802.32 315.5  804 315.5  C 805.68 315.5  807 316.82  807 318.5  C 807 320.18  805.68 321.5  804 321.5  " fill-rule="nonzero" fill="#0099ff" stroke="none" />
</svg>