<?xml version="1.0" encoding="utf-8"?>
<svg version="1.1" xmlns:xlink="http://www.w3.org/1999/xlink" width="12px" height="12px" viewBox="1197 301.5  12 12" xmlns="http://www.w3.org/2000/svg">
  <path d="M 1203 301.5  C 1206.36 301.5  1209 304.14  1209 307.5  C 1209 310.86  1206.36 313.5  1203 313.5  C 1199.64 313.5  1197 310.86  1197 307.5  C 1197 304.14  1199.64 301.5  1203 301.5  Z " fill-rule="nonzero" fill="#f0f0f0" stroke="none" />
  <path d="M 1203 302  C 1206.08 302  1208.5 304.42  1208.5 307.5  C 1208.5 310.58  1206.08 313  1203 313  C 1199.92 313  1197.5 310.58  1197.5 307.5  C 1197.5 304.42  1199.92 302  1203 302  Z " stroke-width="1" stroke="#0099ff" fill="none" />
  <path d="M 1203 310.5  C 1201.32 310.5  1200 309.18  1200 307.5  C 1200 305.82  1201.32 304.5  1203 304.5  C 1204.68 304.5  1206 305.82  1206 307.5  C 1206 309.18  1204.68 310.5  1203 310.5  " fill-rule="nonzero" fill="#0099ff" stroke="none" />
</svg>