<?xml version="1.0" encoding="utf-8"?>
<svg version="1.1" xmlns:xlink="http://www.w3.org/1999/xlink" width="12px" height="12px" viewBox="651 291.5  12 12" xmlns="http://www.w3.org/2000/svg">
  <path d="M 657 291.5  C 660.36 291.5  663 294.14  663 297.5  C 663 300.86  660.36 303.5  657 303.5  C 653.64 303.5  651 300.86  651 297.5  C 651 294.14  653.64 291.5  657 291.5  Z " fill-rule="nonzero" fill="#f0f0f0" stroke="none" />
  <path d="M 657 292  C 660.08 292  662.5 294.42  662.5 297.5  C 662.5 300.58  660.08 303  657 303  C 653.92 303  651.5 300.58  651.5 297.5  C 651.5 294.42  653.92 292  657 292  Z " stroke-width="1" stroke="#0099ff" fill="none" />
  <path d="M 657 300.5  C 655.32 300.5  654 299.18  654 297.5  C 654 295.82  655.32 294.5  657 294.5  C 658.68 294.5  660 295.82  660 297.5  C 660 299.18  658.68 300.5  657 300.5  " fill-rule="nonzero" fill="#0099ff" stroke="none" />
</svg>