<?xml version="1.0" encoding="utf-8"?>
<svg version="1.1" xmlns:xlink="http://www.w3.org/1999/xlink" width="12px" height="12px" viewBox="651 327.5  12 12" xmlns="http://www.w3.org/2000/svg">
  <path d="M 657 327.5  C 660.36 327.5  663 330.14  663 333.5  C 663 336.86  660.36 339.5  657 339.5  C 653.64 339.5  651 336.86  651 333.5  C 651 330.14  653.64 327.5  657 327.5  Z " fill-rule="nonzero" fill="#f0f0f0" stroke="none" />
  <path d="M 657 328  C 660.08 328  662.5 330.42  662.5 333.5  C 662.5 336.58  660.08 339  657 339  C 653.92 339  651.5 336.58  651.5 333.5  C 651.5 330.42  653.92 328  657 328  Z " stroke-width="1" stroke="#0099ff" fill="none" />
  <path d="M 657 336.5  C 655.32 336.5  654 335.18  654 333.5  C 654 331.82  655.32 330.5  657 330.5  C 658.68 330.5  660 331.82  660 333.5  C 660 335.18  658.68 336.5  657 336.5  " fill-rule="nonzero" fill="#0099ff" stroke="none" />
</svg>