<?xml version="1.0" encoding="utf-8"?>
<svg version="1.1" xmlns:xlink="http://www.w3.org/1999/xlink" width="12px" height="12px" viewBox="1631 327.5  12 12" xmlns="http://www.w3.org/2000/svg">
  <path d="M 1637 327.5  C 1640.36 327.5  1643 330.14  1643 333.5  C 1643 336.86  1640.36 339.5  1637 339.5  C 1633.64 339.5  1631 336.86  1631 333.5  C 1631 330.14  1633.64 327.5  1637 327.5  Z " fill-rule="nonzero" fill="#ffffff" stroke="none" />
  <path d="M 1637 328  C 1640.08 328  1642.5 330.42  1642.5 333.5  C 1642.5 336.58  1640.08 339  1637 339  C 1633.92 339  1631.5 336.58  1631.5 333.5  C 1631.5 330.42  1633.92 328  1637 328  Z " stroke-width="1" stroke="#0099ff" fill="none" />
  <path d="M 1637 336.5  C 1635.32 336.5  1634 335.18  1634 333.5  C 1634 331.82  1635.32 330.5  1637 330.5  C 1638.68 330.5  1640 331.82  1640 333.5  C 1640 335.18  1638.68 336.5  1637 336.5  " fill-rule="nonzero" fill="#0099ff" stroke="none" />
</svg>