<?xml version="1.0" encoding="utf-8"?>
<svg version="1.1" xmlns:xlink="http://www.w3.org/1999/xlink" width="26px" height="72px" xmlns="http://www.w3.org/2000/svg">
  <g transform="matrix(1 0 0 1 -1499 -558 )">
    <path d="M 25.382541720154 33.6521739130435  C 25.7941805733847 34.9239130434783  26 36.4076086956522  26 38.1032608695652  C 26 39.7663043478261  25.7941805733847 41.2336956521739  25.382541720154 42.5054347826087  L 24.1309370988447 46.1739130434783  C 23.7081728712024 47.4130434782609  23.2019683354728 48.0326086956522  22.612323491656 48.0326086956522  C 22.0115532734275 48.0326086956522  21.5109114249037 47.4130434782609  21.1103979460847 46.1739130434783  L 16 31.8423913043478  L 16 66.2771739130435  C 16.204107830552 67.9728260869565  15.9955070603338 69.3505434782609  15.5783055198973 70.4103260869565  C 15.1611039794608 71.4701086956522  14.6576807873342 72  14.0680359435173 72  L 11.9319640564827 72  C 11.3423192126658 72  10.8388960205392 71.4701086956522  10.4216944801027 70.4103260869565  C 10.0044929396662 69.3505434782609  9.79589216944801 67.9728260869565  10 66.2771739130435  L 10 31.8423913043478  L 4.88960205391528 46.1739130434783  C 4.48908857509628 47.4130434782609  3.98844672657253 48.0326086956522  3.38767650834403 48.0326086956522  C 2.78690629011553 48.0326086956522  2.28626444159178 47.4130434782609  1.88575096277279 46.1739130434783  L 0.634146341463415 42.5054347826087  C 0.211382113821138 41.2663043478261  0 39.7989130434783  0 38.1032608695652  C 0 36.375  0.211382113821138 34.8913043478261  0.634146341463415 33.6521739130435  L 11.4980744544288 1.80978260869565  C 11.8874625588361 0.603260869565215  12.3881044073599 0  13 0  C 13.6007702182285 0  14.1069747539581 0.603260869565215  14.5186136071887 1.80978260869565  L 25.382541720154 33.6521739130435  Z " fill-rule="nonzero" fill="#f2f2f2" stroke="none" transform="matrix(1 0 0 1 1499 558 )" />
  </g>
</svg>