<?xml version="1.0" encoding="utf-8"?>
<svg version="1.1" xmlns:xlink="http://www.w3.org/1999/xlink" width="12px" height="12px" viewBox="612 265.5  12 12" xmlns="http://www.w3.org/2000/svg">
  <path d="M 618 265.5  C 621.36 265.5  624 268.14  624 271.5  C 624 274.86  621.36 277.5  618 277.5  C 614.64 277.5  612 274.86  612 271.5  C 612 268.14  614.64 265.5  618 265.5  Z " fill-rule="nonzero" fill="#ffffff" stroke="none" />
  <path d="M 618 266  C 621.08 266  623.5 268.42  623.5 271.5  C 623.5 274.58  621.08 277  618 277  C 614.92 277  612.5 274.58  612.5 271.5  C 612.5 268.42  614.92 266  618 266  Z " stroke-width="1" stroke="#0099ff" fill="none" />
  <path d="M 618 274.5  C 616.32 274.5  615 273.18  615 271.5  C 615 269.82  616.32 268.5  618 268.5  C 619.68 268.5  621 269.82  621 271.5  C 621 273.18  619.68 274.5  618 274.5  " fill-rule="nonzero" fill="#0099ff" stroke="none" />
</svg>