<?xml version="1.0" encoding="utf-8"?>
<svg version="1.1" xmlns:xlink="http://www.w3.org/1999/xlink" width="12px" height="12px" viewBox="612 301.5  12 12" xmlns="http://www.w3.org/2000/svg">
  <path d="M 618 301.5  C 621.36 301.5  624 304.14  624 307.5  C 624 310.86  621.36 313.5  618 313.5  C 614.64 313.5  612 310.86  612 307.5  C 612 304.14  614.64 301.5  618 301.5  Z " fill-rule="nonzero" fill="#f0f0f0" stroke="none" />
  <path d="M 618 302  C 621.08 302  623.5 304.42  623.5 307.5  C 623.5 310.58  621.08 313  618 313  C 614.92 313  612.5 310.58  612.5 307.5  C 612.5 304.42  614.92 302  618 302  Z " stroke-width="1" stroke="#0099ff" fill="none" />
  <path d="M 618 310.5  C 616.32 310.5  615 309.18  615 307.5  C 615 305.82  616.32 304.5  618 304.5  C 619.68 304.5  621 305.82  621 307.5  C 621 309.18  619.68 310.5  618 310.5  " fill-rule="nonzero" fill="#0099ff" stroke="none" />
</svg>