<?xml version="1.0" encoding="utf-8"?>
<svg version="1.1" xmlns:xlink="http://www.w3.org/1999/xlink" width="12px" height="12px" viewBox="1775 301.5  12 12" xmlns="http://www.w3.org/2000/svg">
  <path d="M 1781 301.5  C 1784.36 301.5  1787 304.14  1787 307.5  C 1787 310.86  1784.36 313.5  1781 313.5  C 1777.64 313.5  1775 310.86  1775 307.5  C 1775 304.14  1777.64 301.5  1781 301.5  Z " fill-rule="nonzero" fill="#f0f0f0" stroke="none" />
  <path d="M 1781 302  C 1784.08 302  1786.5 304.42  1786.5 307.5  C 1786.5 310.58  1784.08 313  1781 313  C 1777.92 313  1775.5 310.58  1775.5 307.5  C 1775.5 304.42  1777.92 302  1781 302  Z " stroke-width="1" stroke="#0099ff" fill="none" />
  <path d="M 1781 310.5  C 1779.32 310.5  1778 309.18  1778 307.5  C 1778 305.82  1779.32 304.5  1781 304.5  C 1782.68 304.5  1784 305.82  1784 307.5  C 1784 309.18  1782.68 310.5  1781 310.5  " fill-rule="nonzero" fill="#0099ff" stroke="none" />
</svg>