<?xml version="1.0" encoding="utf-8"?>
<svg version="1.1" xmlns:xlink="http://www.w3.org/1999/xlink" width="12px" height="12px" viewBox="1775 265.5  12 12" xmlns="http://www.w3.org/2000/svg">
  <path d="M 1781 265.5  C 1784.36 265.5  1787 268.14  1787 271.5  C 1787 274.86  1784.36 277.5  1781 277.5  C 1777.64 277.5  1775 274.86  1775 271.5  C 1775 268.14  1777.64 265.5  1781 265.5  Z " fill-rule="nonzero" fill="#f0f0f0" stroke="none" />
  <path d="M 1781 266  C 1784.08 266  1786.5 268.42  1786.5 271.5  C 1786.5 274.58  1784.08 277  1781 277  C 1777.92 277  1775.5 274.58  1775.5 271.5  C 1775.5 268.42  1777.92 266  1781 266  Z " stroke-width="1" stroke="#0099ff" fill="none" />
  <path d="M 1781 274.5  C 1779.32 274.5  1778 273.18  1778 271.5  C 1778 269.82  1779.32 268.5  1781 268.5  C 1782.68 268.5  1784 269.82  1784 271.5  C 1784 273.18  1782.68 274.5  1781 274.5  " fill-rule="nonzero" fill="#0099ff" stroke="none" />
</svg>