<?xml version="1.0" encoding="utf-8"?>
<svg version="1.1" xmlns:xlink="http://www.w3.org/1999/xlink" width="14px" height="23px" xmlns="http://www.w3.org/2000/svg">
  <g transform="matrix(1 0 0 1 -722 -344 )">
    <path d="M 13.6536458333333 0.359375  C 13.8845486111111 0.59895833333333  14 0.882675438596488  14 1.21052631578947  L 14 21.7894736842105  C 14 22.1173245614035  13.8845486111111 22.4010416666667  13.6536458333333 22.640625  C 13.4227430555556 22.8802083333333  13.1493055555556 23  12.8333333333333 23  C 12.5173611111111 23  12.2439236111111 22.8802083333333  12.0130208333333 22.640625  L 5.94270833333333 16.3421052631579  L 1.16666666666667 16.3421052631579  C 0.850694444444445 16.3421052631579  0.577256944444444 16.2223135964912  0.346354166666667 15.9827302631579  C 0.115451388888889 15.7431469298246  0 15.4594298245614  0 15.1315789473684  L 0 7.86842105263158  C 0 7.54057017543859  0.115451388888889 7.25685307017544  0.346354166666667 7.01726973684211  C 0.577256944444444 6.77768640350877  0.850694444444445 6.65789473684211  1.16666666666667 6.65789473684211  L 5.94270833333333 6.65789473684211  L 12.0130208333333 0.359375  C 12.2439236111111 0.119791666666665  12.5173611111111 0  12.8333333333333 0  C 13.1493055555556 0  13.4227430555556 0.119791666666665  13.6536458333333 0.359375  Z " fill-rule="nonzero" fill="#f2f2f2" stroke="none" transform="matrix(1 0 0 1 722 344 )" />
  </g>
</svg>