<?xml version="1.0" encoding="utf-8"?>
<svg version="1.1" xmlns:xlink="http://www.w3.org/1999/xlink" width="28px" height="23px" xmlns="http://www.w3.org/2000/svg">
  <g transform="matrix(1 0 0 1 -947 -344 )">
    <path d="M 12.6033653846154 1.9732770745429  C 12.8165064102564 2.17815283638068  12.9230769230769 2.42076887013596  13 2.70112517580872  L 13 20.2988748241913  C 12.9230769230769 20.579231129864  12.8165064102564 20.8218471636193  12.6033653846154 21.0267229254571  C 12.3902243589744 21.2315986872949  12.1378205128205 21.3340365682138  11.8461538461538 21.3340365682138  C 11.5544871794872 21.3340365682138  11.3020833333333 21.2315986872949  11.0889423076923 21.0267229254571  L 5.48557692307692 15.64064697609  L 1.07692307692308 15.64064697609  C 0.78525641025641 15.64064697609  0.532852564102564 15.5382090951711  0.319711538461538 15.3333333333333  C 0.106570512820513 15.1284575714955  0 14.8858415377403  0 14.6054852320675  L 0 8.39451476793249  C 0 8.11415846225973  0.106570512820513 7.87154242850445  0.319711538461538 7.66666666666667  C 0.532852564102564 7.46179090482888  0.78525641025641 7.35935302390999  1.07692307692308 7.35935302390999  L 5.48557692307692 7.35935302390999  L 11.0889423076923 1.9732770745429  C 11.3020833333333 1.76840131270511  11.5544871794872 1.66596343178622  11.8461538461538 1.66596343178622  C 12.1378205128205 1.66596343178622  12.3902243589744 1.76840131270511  12.6033653846154 1.9732770745429  Z M 18.6694711538462 9.20323488045007  C 19.146233974359 9.91490857946554  19.3846153846154 10.6804969526488  19.3846153846154 11.5  C 19.3846153846154 12.3195030473511  19.146233974359 13.0823956868261  18.6694711538462 13.7886779184248  C 18.1927083333333 14.4949601500234  17.5616987179487 14.9990623534927  16.7764423076923 15.3009845288326  C 16.6642628205128 15.3548992030005  16.5240384615385 15.3818565400844  16.3557692307692 15.3818565400844  C 16.0641025641026 15.3818565400844  15.8116987179487 15.2821143928739  15.5985576923077 15.0826300984529  C 15.3854166666667 14.8831458040319  15.2788461538462 14.6378340365682  15.2788461538462 14.3466947960619  C 15.2788461538462 14.120253164557  15.3461538461538 13.9288560712611  15.4807692307692 13.7725035161744  C 15.6153846153846 13.6161509610877  15.7780448717949 13.4813642756681  15.96875 13.3681434599156  C 16.1594551282051 13.2549226441632  16.3501602564103 13.1309188935771  16.5408653846154 12.9961322081575  C 16.7315705128205 12.8613455227379  16.8942307692308 12.6672526957337  17.0288461538462 12.4138537271449  C 17.1634615384615 12.160454758556  17.2307692307692 11.8558368495077  17.2307692307692 11.5  C 17.2307692307692 11.1441631504923  17.1634615384615 10.839545241444  17.0288461538462 10.5861462728551  C 16.8942307692308 10.3327473042663  16.7315705128205 10.1386544772621  16.5408653846154 10.0038677918425  C 16.3501602564103 9.86908110642288  16.1594551282051 9.74507735583685  15.96875 9.63185654008439  C 15.7780448717949 9.51863572433193  15.6153846153846 9.38384903891233  15.4807692307692 9.2274964838256  C 15.3461538461538 9.07114392873886  15.2788461538462 8.87974683544304  15.2788461538462 8.65330520393812  C 15.2788461538462 8.36216596343179  15.3854166666667 8.11685419596812  15.5985576923077 7.91736990154712  C 15.8116987179487 7.71788560712611  16.0641025641026 7.61814345991561  16.3557692307692 7.61814345991561  C 16.5240384615385 7.61814345991561  16.6642628205128 7.64510079699953  16.7764423076923 7.69901547116737  C 17.5616987179487 7.9901547116737  18.1927083333333 8.4915611814346  18.6694711538462 9.20323488045007  Z M 22.2620192307692 6.93073136427567  C 23.2155448717949 8.32712142522269  23.6923076923077 9.85021097046413  23.6923076923077 11.5  C 23.6923076923077 13.1497890295359  23.2155448717949 14.6728785747773  22.2620192307692 16.0692686357243  C 21.3084935897436 17.4656586966714  20.0464743589744 18.4819503047351  18.4759615384615 19.1181434599156  C 18.3301282051282 19.1720581340835  18.1899038461538 19.1990154711674  18.0552884615385 19.1990154711674  C 17.7524038461538 19.1990154711674  17.494391025641 19.0965775902485  17.28125 18.8917018284107  C 17.068108974359 18.6868260665729  16.9615384615385 18.4442100328176  16.9615384615385 18.1638537271449  C 16.9615384615385 17.7433192686357  17.1802884615385 17.4252226910455  17.6177884615385 17.2095639943741  C 18.2459935897436 16.8968588842007  18.6722756410256 16.6596343178622  18.8966346153846 16.4978902953587  C 19.7267628205128 15.915611814346  20.3745993589744 15.1850679793718  20.8401442307692 14.306258790436  C 21.3056891025641 13.4274496015002  21.5384615384615 12.4920300046882  21.5384615384615 11.5  C 21.5384615384615 10.5079699953118  21.3056891025641 9.57255039849976  20.8401442307692 8.69374120956399  C 20.3745993589744 7.81493202062822  19.7267628205128 7.08438818565401  18.8966346153846 6.50210970464135  C 18.6722756410256 6.34036568213783  18.2459935897436 6.10314111579934  17.6177884615385 5.79043600562588  C 17.1802884615385 5.57477730895452  16.9615384615385 5.25668073136428  16.9615384615385 4.83614627285513  C 16.9615384615385 4.55578996718237  17.068108974359 4.3131739334271  17.28125 4.10829817158931  C 17.494391025641 3.90342240975152  17.7467948717949 3.80098452883263  18.0384615384615 3.80098452883263  C 18.1842948717949 3.80098452883263  18.3301282051282 3.82794186591655  18.4759615384615 3.88185654008439  C 20.0464743589744 4.51804969526488  21.3084935897436 5.53434130332864  22.2620192307692 6.93073136427567  Z M 25.8629807692308 4.66631504922644  C 27.2876602564103 6.74203000468823  28 9.01992498827942  28 11.5  C 28 13.9800750117206  27.2876602564103 16.2579699953118  25.8629807692308 18.3336849507736  C 24.4383012820513 20.4093999062354  22.5424679487179 21.9378809188936  20.1754807692308 22.9191279887482  C 20.0296474358974 22.9730426629161  19.8838141025641 23  19.7379807692308 23  C 19.4463141025641 23  19.1939102564103 22.8975621190811  18.9807692307692 22.6926863572433  C 18.7676282051282 22.4878105954055  18.6610576923077 22.2451945616503  18.6610576923077 21.9648382559775  C 18.6610576923077 21.5766526019691  18.8798076923077 21.2585560243788  19.3173076923077 21.0105485232068  C 19.3958333333333 20.9674167838725  19.5220352564103 20.9108063759962  19.6959134615385 20.8407172995781  C 19.8697916666667 20.7706282231599  19.9959935897436 20.7140178152836  20.0745192307692 20.6708860759494  C 20.5905448717949 20.4013127051102  21.0504807692308 20.1263478668542  21.4543269230769 19.8459915611814  C 22.8341346153846 18.8647444913268  23.9110576923077 17.6408813877168  24.6850961538462 16.1744022503516  C 25.4591346153846 14.7079231129864  25.8461538461538 13.1497890295359  25.8461538461538 11.5  C 25.8461538461538 9.85021097046413  25.4591346153846 8.2920768870136  24.6850961538462 6.82559774964838  C 23.9110576923077 5.35911861228317  22.8341346153846 4.13525550867323  21.4543269230769 3.15400843881857  C 21.0504807692308 2.8736521331458  20.5905448717949 2.59868729488982  20.0745192307692 2.32911392405063  C 19.9959935897436 2.28598218471636  19.8697916666667 2.22937177684013  19.6959134615385 2.15928270042194  C 19.5220352564103 2.08919362400375  19.3958333333333 2.03258321612752  19.3173076923077 1.98945147679325  C 18.8798076923077 1.74144397562119  18.6610576923077 1.42334739803094  18.6610576923077 1.0351617440225  C 18.6610576923077 0.754805438349739  18.7676282051282 0.512189404594466  18.9807692307692 0.30731364275668  C 19.1939102564103 0.102437880918893  19.4463141025641 0  19.7379807692308 0  C 19.8838141025641 0  20.0296474358974 0.0269573370839179  20.1754807692308 0.0808720112517588  C 22.5424679487179 1.06211908110642  24.4383012820513 2.59060009376465  25.8629807692308 4.66631504922644  Z " fill-rule="nonzero" fill="#f2f2f2" stroke="none" transform="matrix(1 0 0 1 947 344 )" />
  </g>
</svg>